<svg width="70" height="40" viewBox="0 0 70 40" fill="none" xmlns="http://www.w3.org/2000/svg">
<path d="M32.8193 0.944686L0.831886 34.8887C0.297891 35.4551 0 36.2076 0 36.9901C0 37.7726 0.297891 38.525 0.831886 39.0914L0.86803 39.1279C1.1269 39.4035 1.4385 39.6229 1.78387 39.7728C2.12925 39.9227 2.50118 40 2.87703 40C3.25289 40 3.62482 39.9227 3.97019 39.7728C4.31557 39.6229 4.62716 39.4035 4.88604 39.1279L35.006 7.1634L65.114 39.1279C65.3728 39.4035 65.6844 39.6229 66.0298 39.7728C66.3752 39.9227 66.7471 40 67.123 40C67.4988 40 67.8707 39.9227 68.2161 39.7728C68.5615 39.6229 68.8731 39.4035 69.132 39.1279L69.1681 39.0914C69.7021 38.525 70 37.7726 70 36.9901C70 36.2076 69.7021 35.4551 69.1681 34.8887L37.1807 0.944686C36.8994 0.646162 36.5611 0.408504 36.1862 0.246118C35.8114 0.0837326 35.4078 0 35 0C34.5922 0 34.1886 0.0837326 33.8138 0.246118C33.4389 0.408504 33.1006 0.646162 32.8193 0.944686Z" fill="black"/>
</svg>
