<svg width="34" height="38" viewBox="0 0 34 38" fill="none" xmlns="http://www.w3.org/2000/svg">
<path d="M0 32.9375V13.8125C0 13.1396 0.150875 12.5021 0.452625 11.9C0.754375 11.2979 1.17017 10.8021 1.7 10.4125L14.45 0.85C15.1938 0.283334 16.0438 0 17 0C17.9562 0 18.8062 0.283334 19.55 0.85L32.3 10.4125C32.8313 10.8021 33.2478 11.2979 33.5495 11.9C33.8513 12.5021 34.0014 13.1396 34 13.8125V32.9375C34 34.1063 33.5835 35.1071 32.7505 35.9401C31.9175 36.7731 30.9173 37.1889 29.75 37.1875H23.375C22.7729 37.1875 22.2686 36.9835 21.862 36.5755C21.4554 36.1675 21.2514 35.6632 21.25 35.0625V24.4375C21.25 23.8354 21.046 23.3311 20.638 22.9245C20.23 22.5179 19.7257 22.3139 19.125 22.3125H14.875C14.2729 22.3125 13.7686 22.5165 13.362 22.9245C12.9554 23.3325 12.7514 23.8368 12.75 24.4375V35.0625C12.75 35.6646 12.546 36.1696 12.138 36.5776C11.73 36.9856 11.2257 37.1889 10.625 37.1875H4.25C3.08125 37.1875 2.08108 36.7717 1.2495 35.9401C0.417916 35.1085 0.00141667 34.1077 0 32.9375Z" fill="white"/>
</svg>
