<svg width="131" height="131" viewBox="0 0 131 131" fill="none" xmlns="http://www.w3.org/2000/svg">
<path d="M65.5 0.916626C101.169 0.916626 130.083 29.8306 130.083 65.5C130.083 101.169 101.169 130.083 65.5 130.083C29.8306 130.083 0.916687 101.169 0.916687 65.5C0.916687 29.8306 29.8306 0.916626 65.5 0.916626ZM65.4354 52.5833H59.0417C57.3956 52.5851 55.8123 53.2154 54.6153 54.3454C53.4184 55.4754 52.6981 57.0199 52.6016 58.6631C52.5051 60.3064 53.0398 61.9245 54.0963 63.1868C55.1528 64.4491 56.6515 65.2603 58.2861 65.4548L59.0417 65.5V97.727C59.0417 101.085 61.5863 103.862 64.8542 104.211L65.5646 104.25H68.7292C70.0875 104.25 71.4112 103.822 72.5121 103.026C73.613 102.231 74.435 101.108 74.8613 99.8186C75.2876 98.529 75.2965 97.1378 74.8866 95.8428C74.4768 94.5479 73.669 93.4151 72.5784 92.6056L71.9584 92.1987V59.1062C71.9584 55.7479 69.4138 52.9708 66.1459 52.622L65.4354 52.5833ZM65.5 33.2083C63.7872 33.2083 62.1445 33.8887 60.9333 35.0999C59.7221 36.3111 59.0417 37.9538 59.0417 39.6666C59.0417 41.3795 59.7221 43.0222 60.9333 44.2334C62.1445 45.4445 63.7872 46.125 65.5 46.125C67.2129 46.125 68.8556 45.4445 70.0668 44.2334C71.2779 43.0222 71.9584 41.3795 71.9584 39.6666C71.9584 37.9538 71.2779 36.3111 70.0668 35.0999C68.8556 33.8887 67.2129 33.2083 65.5 33.2083Z" fill="white"/>
</svg>
