<svg width="80" height="80" viewBox="0 0 80 80" fill="none" xmlns="http://www.w3.org/2000/svg">
<path fill-rule="evenodd" clip-rule="evenodd" d="M20 6.66663C17.3478 6.66663 14.8043 7.72019 12.9289 9.59556C11.0536 11.4709 10 14.0145 10 16.6666V63.3333C10 65.9855 11.0536 68.529 12.9289 70.4044C14.8043 72.2797 17.3478 73.3333 20 73.3333H40C42.6522 73.3333 45.1957 72.2797 47.0711 70.4044C48.9464 68.529 50 65.9855 50 63.3333V16.6666C50 14.0145 48.9464 11.4709 47.0711 9.59556C45.1957 7.72019 42.6522 6.66663 40 6.66663H20ZM54.31 24.31C54.9351 23.6851 55.7828 23.334 56.6667 23.334C57.5505 23.334 58.3982 23.6851 59.0233 24.31L72.3567 37.6433C72.9816 38.2684 73.3326 39.1161 73.3326 40C73.3326 40.8838 72.9816 41.7315 72.3567 42.3566L59.0233 55.69C58.3947 56.2972 57.5527 56.6331 56.6787 56.6255C55.8047 56.6179 54.9686 56.2674 54.3506 55.6494C53.7326 55.0313 53.382 54.1953 53.3744 53.3213C53.3668 52.4473 53.7028 51.6053 54.31 50.9766L61.9533 43.3333H33.3333C32.4493 43.3333 31.6014 42.9821 30.9763 42.357C30.3512 41.7319 30 40.884 30 40C30 39.1159 30.3512 38.2681 30.9763 37.6429C31.6014 37.0178 32.4493 36.6666 33.3333 36.6666H61.9533L54.31 29.0233C53.6851 28.3982 53.334 27.5505 53.334 26.6666C53.334 25.7827 53.6851 24.9351 54.31 24.31Z" fill="#78AFF3"/>
</svg>
