<svg width="49" height="49" viewBox="0 0 49 49" fill="none" xmlns="http://www.w3.org/2000/svg">
<path fill-rule="evenodd" clip-rule="evenodd" d="M18.5188 0C18.1862 0.00569651 17.8597 0.0910205 17.5663 0.248914C17.273 0.406808 17.0212 0.632734 16.8318 0.908004C16.6429 1.18352 16.4935 1.48436 16.3878 1.80171C16.2351 2.23069 16.1037 2.78478 15.9864 3.27453L15.9403 3.4497C15.6419 4.68659 15.3507 5.69111 14.9351 6.25951C14.6739 6.55951 14.3596 6.80801 14.0081 6.99234C13.4667 7.30443 12.9055 7.58029 12.3281 7.81813L11.8806 8.01117C11.4552 8.18884 11.0347 8.37838 10.6197 8.57956C10.3782 8.69753 10.0692 8.86555 9.80284 9.08004C9.54161 9.27543 9.32832 9.52846 9.17932 9.81971C9.03033 10.111 8.9496 10.4327 8.94332 10.7602C8.94332 11.7397 9.63236 12.2974 9.79929 12.4332C10.0692 12.6477 10.3782 12.8157 10.6162 12.9373C10.9749 13.116 11.4402 13.3162 11.8806 13.5057L12.3281 13.6987C12.939 13.9632 13.5144 14.2313 14.0081 14.5209C14.3586 14.7067 14.6717 14.9564 14.9316 15.2573C15.3507 15.8257 15.6419 16.8302 15.9403 18.0671L15.9829 18.2459C16.1037 18.7285 16.2351 19.2826 16.3878 19.7115C16.4935 20.0289 16.6429 20.3297 16.8318 20.6052C17.0449 20.9055 17.5883 21.5133 18.5188 21.5133C19.453 21.5133 19.9964 20.9055 20.2095 20.6088C20.3983 20.3333 20.5478 20.0325 20.6535 19.7151C20.8062 19.2826 20.9376 18.7285 21.0548 18.2423L21.0974 18.0636C21.3993 16.8302 21.6906 15.8257 22.1061 15.2573C22.3673 14.9573 22.6817 14.7088 23.0331 14.5245C23.5733 14.2125 24.1334 13.9367 24.7096 13.6987L25.1606 13.5057C25.601 13.3162 26.0663 13.116 26.4215 12.9373C26.663 12.8157 26.972 12.6513 27.2384 12.4368C27.4996 12.2414 27.7129 11.9884 27.8619 11.6971C28.0109 11.4059 28.0916 11.0841 28.0979 10.7566C28.091 10.4306 28.0103 10.1105 27.862 9.82059C27.7136 9.53069 27.5016 9.27864 27.242 9.08361C26.9866 8.88732 26.7117 8.71839 26.4215 8.57956C26.0663 8.40082 25.601 8.20063 25.1606 8.01117L24.7096 7.81813C24.1335 7.58131 23.5734 7.30665 23.0331 6.99592C22.6826 6.81016 22.3695 6.56044 22.1097 6.25951C21.6906 5.69111 21.3993 4.68659 21.0974 3.4497L21.0548 3.27096C20.9417 2.77689 20.8078 2.28789 20.6535 1.80528C20.5481 1.48669 20.3986 1.18463 20.2095 0.908004C20.0193 0.632908 19.7668 0.407376 19.4728 0.250093C19.1788 0.09281 18.8518 0.00830333 18.5188 0.00357482M20.0035 25.8066C21.1277 25.5281 22.1523 24.9392 22.9619 24.1061C23.7714 23.273 24.3336 22.2289 24.5852 21.0914L24.603 21.0271C24.7188 20.5377 24.8551 20.0535 25.0115 19.5757C25.1766 19.0683 25.3699 18.5706 25.5904 18.085L25.6401 18.0493C25.9278 17.8526 26.3292 17.6203 26.8015 17.3808C27.3266 17.1179 27.8622 16.877 28.4069 16.6586L28.4851 16.6229C29.9266 16.0844 31.1186 15.0273 31.8308 13.6558L43.9672 10.2669L43.9885 10.2633C44.5708 10.106 45.1809 10.084 45.7729 10.199C46.3649 10.3139 46.9231 10.5627 47.4055 10.9267C47.8879 11.2907 48.2818 11.7602 48.5574 12.2999C48.833 12.8396 48.9831 13.4352 48.9964 14.0419V14.1134L49 14.1241V34.8723C48.9608 36.4326 48.4372 37.9412 47.5026 39.1866C46.568 40.432 45.2694 41.3515 43.7891 41.8162C42.3087 42.2808 40.721 42.2672 39.2488 41.7772C37.7765 41.2872 36.4937 40.3455 35.5804 39.0843C34.667 37.823 34.169 36.3056 34.1563 34.7449C34.1436 33.1843 34.6167 31.6588 35.5093 30.3826C36.402 29.1064 37.6693 28.1436 39.1333 27.6294C40.5974 27.1152 42.1847 27.0753 43.6724 27.5154V22.3319L25.3276 27.4546V41.5287C25.3276 43.0975 24.8369 44.6266 23.9251 45.899C23.0133 47.1715 21.7266 48.1228 20.2476 48.618C18.7685 49.1132 17.1721 49.1273 15.6847 48.6581C14.1972 48.189 12.8943 47.2605 11.9605 46.0043C11.0268 44.7481 10.5096 43.2279 10.4824 41.6592C10.4551 40.0906 10.9192 38.5531 11.8087 37.2648C12.6983 35.9765 13.9682 35.0027 15.4384 34.4816C16.9087 33.9604 18.5046 33.9183 19.9999 34.3611L20.0035 25.8066ZM6.69151 20.4086C7.39799 20.4086 8.07554 20.6911 8.57511 21.1939C9.07467 21.6967 9.35532 22.3787 9.35532 23.0897V24.4625H10.7192C11.4257 24.4625 12.1032 24.7449 12.6028 25.2478C13.1024 25.7506 13.383 26.4325 13.383 27.1436C13.383 27.8547 13.1024 28.5366 12.6028 29.0394C12.1032 29.5422 11.4257 29.8247 10.7192 29.8247H9.35532V31.1974C9.35532 31.9085 9.07467 32.5905 8.57511 33.0933C8.07554 33.5961 7.39799 33.8785 6.69151 33.8785C5.98502 33.8785 5.30747 33.5961 4.8079 33.0933C4.30834 32.5905 4.02769 31.9085 4.02769 31.1974V29.8247H2.66382C1.95733 29.8247 1.27978 29.5422 0.780214 29.0394C0.280651 28.5366 0 27.8547 0 27.1436C0 26.4325 0.280651 25.7506 0.780214 25.2478C1.27978 24.7449 1.95733 24.4625 2.66382 24.4625H4.02769V23.0933C4.02769 22.3822 4.30834 21.7003 4.8079 21.1975C5.30747 20.6947 5.98502 20.4086 6.69151 20.4086Z" fill="#60A5FA" fill-opacity="0.8"/>
</svg>
