<svg width="54" height="54" viewBox="0 0 54 54" fill="none" xmlns="http://www.w3.org/2000/svg">
<mask id="mask0_296_3063" style="mask-type:luminance" maskUnits="userSpaceOnUse" x="3" y="3" width="48" height="48">
<path d="M41.2718 17.0674C42.7055 19.1229 43.6762 21.465 44.1169 23.9321H49.5V30.0679H44.1169C43.6762 32.535 42.7055 34.8771 41.2718 36.9326L45.0799 40.7408L40.7408 45.0799L36.9326 41.2718C34.8771 42.7055 32.535 43.6762 30.0679 44.1169V49.5H23.9321V44.1169C21.465 43.6762 19.1229 42.7055 17.0674 41.2718L13.2593 45.0799L8.92012 40.7408L12.7283 36.9326C11.2945 34.8771 10.3238 32.535 9.88312 30.0679H4.5V23.9321H9.88312C10.3238 21.465 11.2945 19.1229 12.7283 17.0674L8.92012 13.2593L13.2593 8.92012L17.0674 12.7283C19.1229 11.2945 21.465 10.3238 23.9321 9.88312V4.5H30.0679V9.88312C32.535 10.3238 34.8771 11.2945 36.9326 12.7283L40.7408 8.92012L45.0799 13.2593L41.2718 17.0674Z" fill="white" stroke="white" stroke-width="2" stroke-linejoin="round"/>
<path d="M27 32.625C28.4918 32.625 29.9226 32.0324 30.9775 30.9775C32.0324 29.9226 32.625 28.4918 32.625 27C32.625 25.5082 32.0324 24.0774 30.9775 23.0225C29.9226 21.9676 28.4918 21.375 27 21.375C25.5082 21.375 24.0774 21.9676 23.0225 23.0225C21.9676 24.0774 21.375 25.5082 21.375 27C21.375 28.4918 21.9676 29.9226 23.0225 30.9775C24.0774 32.0324 25.5082 32.625 27 32.625Z" fill="black" stroke="black" stroke-width="2" stroke-linejoin="round"/>
</mask>
<g mask="url(#mask0_296_3063)">
<path d="M0 0H54V54H0V0Z" fill="#60A5FA" fill-opacity="0.8"/>
</g>
</svg>
