<svg width="38" height="45" viewBox="0 0 38 45" fill="none" xmlns="http://www.w3.org/2000/svg">
<path d="M19 39.6429C19 40.7786 19.19 41.85 19.5489 42.8571H4.22222C1.87889 42.8571 0 40.95 0 38.5714V4.28571C0 3.14907 0.44484 2.05898 1.23666 1.25526C2.02848 0.451529 3.10242 0 4.22222 0H6.33333V15L11.6111 11.7857L16.8889 15V0H29.5556C30.6754 0 31.7493 0.451529 32.5411 1.25526C33.3329 2.05898 33.7778 3.14907 33.7778 4.28571V19.2857H26.3889V30.2357C22.1667 31.2214 19 35.0571 19 39.6429ZM33.7778 23.5714H30.6111V34.7357C29.8919 34.416 29.1115 34.2632 28.3268 34.2884C27.5421 34.3136 26.7728 34.5162 26.0749 34.8815C25.3771 35.2467 24.7684 35.7654 24.2931 36.3997C23.8178 37.034 23.4878 37.7679 23.3274 38.5481C23.1669 39.3282 23.18 40.1348 23.3656 40.9092C23.5512 41.6835 23.9046 42.4061 24.4002 43.0242C24.8957 43.6423 25.5209 44.1404 26.2302 44.4823C26.9394 44.8241 27.7149 45.0009 28.5 45C29.8998 45 31.2422 44.4356 32.232 43.4309C33.2217 42.4263 33.7778 41.0637 33.7778 39.6429V27.8571H38V23.5714H33.7778Z" fill="#60A5FA" fill-opacity="0.8"/>
</svg>
