<svg width="66" height="66" viewBox="0 0 66 66" fill="none" xmlns="http://www.w3.org/2000/svg">
<path fill-rule="evenodd" clip-rule="evenodd" d="M52.1675 19.1675C52.5542 18.7813 53.0784 18.5643 53.625 18.5643C54.1716 18.5643 54.6958 18.7813 55.0825 19.1675L55.088 19.173L55.0962 19.1785L55.1155 19.1978L55.1705 19.2528L55.341 19.4425C55.4785 19.5993 55.671 19.822 55.8938 20.1053C58.4347 23.4079 59.8124 27.458 59.8125 31.625C59.8124 35.792 58.4347 39.8421 55.8938 43.1448C55.6634 43.4387 55.4212 43.7231 55.1678 43.9973L55.1128 44.0523L55.0962 44.0715L55.088 44.077L55.0853 44.0798L53.6827 42.6828L55.0853 44.0853C54.6983 44.4722 54.1736 44.6896 53.6264 44.6896C53.0792 44.6896 52.5544 44.4722 52.1675 44.0853C51.7806 43.6983 51.5632 43.1736 51.5632 42.6264C51.5632 42.0792 51.7806 41.5544 52.1675 41.1675L52.1647 41.1703L52.1592 41.173L52.173 41.1593L52.2637 41.0603C52.3517 40.9649 52.4792 40.8118 52.646 40.601C54.3857 38.3299 55.4283 35.6023 55.647 32.7498C55.8657 29.8972 55.2512 27.0426 53.878 24.5328C53.5195 23.8722 53.1075 23.2422 52.646 22.649C52.4967 22.456 52.3388 22.2698 52.173 22.0908L52.1592 22.077C51.7758 21.6894 51.5614 21.1658 51.5629 20.6206C51.5645 20.0753 51.7818 19.5529 52.1675 19.1675ZM35.8517 9.33902C39.05 7.22977 43.3125 9.52602 43.3125 13.3568V52.6433C43.3125 56.4768 39.05 58.7703 35.8517 56.661L19.3518 45.7848C19.2401 45.7103 19.1092 45.6702 18.975 45.6693H11C8.9943 45.6693 7.07075 44.8725 5.65251 43.4543C4.23426 42.036 3.4375 40.1125 3.4375 38.1068V27.8933C3.4375 25.8876 4.23426 23.964 5.65251 22.5458C7.07075 21.1275 8.9943 20.3308 11 20.3308H18.975C19.1098 20.3312 19.2418 20.292 19.3545 20.218L35.8517 9.33902Z" fill="#78AFF3"/>
</svg>
