<svg width="37" height="44" viewBox="0 0 37 44" fill="none" xmlns="http://www.w3.org/2000/svg">
<path d="M17.2093 0L9.83081 1.99901L0.12907 38.6331C0.0645348 38.959 0 39.3067 0 39.6543C0 42.0662 1.91453 44 4.30233 44H30.1163C32.5041 44 34.4186 42.0662 34.4186 39.6543C34.4186 39.3067 34.3541 38.959 34.2895 38.6331L31.364 27.5299L27.9651 30.963L28.3953 33.1358H20.2424L26.3517 26.9649L23.3186 23.9012L14.1762 33.1358H6.02326L13.5308 4.88889H20.8878L24.0285 16.6874L27.5349 13.1239L24.5878 1.99901L17.2093 0ZM15.5959 7.06173V28.2469L18.8227 24.9877V7.06173H15.5959ZM33.9669 13.1457L27.8791 19.2948L26.3517 17.7521L23.3186 20.8375L29.3849 26.9649L32.4395 23.9012L30.9122 22.3585L37 16.2094L33.9669 13.1457Z" fill="#60A5FA" fill-opacity="0.8"/>
</svg>
