<svg width="45" height="45" viewBox="0 0 45 45" fill="none" xmlns="http://www.w3.org/2000/svg">
<path d="M22.5 0C18.0499 0 13.6998 1.3196 9.99968 3.79193C6.29957 6.26426 3.41569 9.77828 1.71272 13.8896C0.00974887 18.001 -0.435826 22.525 0.432341 26.8895C1.30051 31.2541 3.44343 35.2632 6.59011 38.4099C9.73679 41.5566 13.7459 43.6995 18.1105 44.5677C22.475 45.4358 26.999 44.9903 31.1104 43.2873C35.2217 41.5843 38.7357 38.7004 41.2081 35.0003C43.6804 31.3002 45 26.9501 45 22.5C45 16.5326 42.6295 10.8097 38.4099 6.5901C34.1903 2.37053 28.4674 0 22.5 0ZM34.4684 23.9384L15.1827 33.5812C14.9376 33.7037 14.6653 33.7615 14.3916 33.7491C14.1179 33.7367 13.8519 33.6545 13.6189 33.5104C13.3859 33.3663 13.1936 33.165 13.0603 32.9256C12.9269 32.6863 12.857 32.4168 12.8572 32.1429V12.8571C12.8573 12.5833 12.9274 12.314 13.0608 12.0749C13.1943 11.8358 13.3866 11.6347 13.6196 11.4908C13.8525 11.3468 14.1184 11.2648 14.392 11.2525C14.6655 11.2402 14.9377 11.2979 15.1827 11.4204L34.4684 21.0632C34.735 21.1968 34.9592 21.402 35.1158 21.6557C35.2725 21.9095 35.3554 22.2018 35.3554 22.5C35.3554 22.7982 35.2725 23.0905 35.1158 23.3443C34.9592 23.598 34.735 23.8032 34.4684 23.9368" fill="#60A5FA" fill-opacity="0.8"/>
</svg>
