<svg width="42" height="42" viewBox="0 0 42 42" fill="none" xmlns="http://www.w3.org/2000/svg">
<path d="M21 0C16.8466 0 12.7865 1.23163 9.33302 3.53914C5.87959 5.84665 3.18797 9.1264 1.59853 12.9636C0.00908941 16.8009 -0.406781 21.0233 0.403509 25.0969C1.2138 29.1705 3.21385 32.9123 6.15076 35.8492C9.08766 38.7861 12.8295 40.7862 16.9031 41.5965C20.9767 42.4068 25.1991 41.9909 29.0364 40.4015C32.8736 38.812 36.1534 36.1204 38.4609 32.667C40.7684 29.2135 42 25.1534 42 21C42 15.4305 39.7875 10.089 35.8492 6.15076C31.911 2.21249 26.5695 0 21 0ZM32.1705 22.3425L14.1705 31.3425C13.9418 31.4568 13.6876 31.5107 13.4321 31.4992C13.1767 31.4876 12.9284 31.4109 12.711 31.2764C12.4935 31.1419 12.314 30.954 12.1896 30.7306C12.0651 30.5072 11.9999 30.2557 12 30V12C12.0001 11.7444 12.0656 11.4931 12.1901 11.2699C12.3147 11.0467 12.4942 10.859 12.7116 10.7247C12.929 10.5904 13.1772 10.5138 13.4325 10.5023C13.6878 10.4908 13.9419 10.5448 14.1705 10.659L32.1705 19.659C32.4193 19.7837 32.6285 19.9752 32.7748 20.212C32.921 20.4488 32.9984 20.7217 32.9984 21C32.9984 21.2783 32.921 21.5512 32.7748 21.788C32.6285 22.0248 32.4193 22.2163 32.1705 22.341" fill="white"/>
</svg>
