<svg width="48" height="48" viewBox="0 0 48 48" fill="none" xmlns="http://www.w3.org/2000/svg">
<path fill-rule="evenodd" clip-rule="evenodd" d="M23.9999 2.63696e-10C27.1517 -1.47735e-05 30.2725 0.620751 33.1844 1.82685C36.0962 3.03296 38.7419 4.80078 40.9705 7.02938C43.1992 9.25798 44.967 11.9037 46.1731 14.8155C47.3792 17.7274 48 20.8482 48 23.9999C48 37.2548 37.2548 48 23.9999 48C10.7452 48 0 37.2548 0 23.9999C0 10.7452 10.7452 2.63696e-10 23.9999 2.63696e-10ZM26.4 26.4H21.6C15.6583 26.4 10.5572 29.9986 8.35706 35.1354C11.8383 40.0169 17.5474 43.2 23.9999 43.2C30.4525 43.2 36.1616 40.0169 39.6429 35.1351C37.4428 29.9986 32.3417 26.4 26.4 26.4ZM23.9999 7.19999C20.0235 7.19999 16.7999 10.4236 16.7999 14.4C16.7999 18.3764 20.0235 21.6 23.9999 21.6C27.9764 21.6 31.1999 18.3764 31.1999 14.4C31.1999 10.4236 27.9765 7.19999 23.9999 7.19999Z" fill="white"/>
</svg>
