<svg width="6" height="10" viewBox="0 0 6 10" fill="none" xmlns="http://www.w3.org/2000/svg">
<path d="M5.8583 4.68847L0.766689 0.11884C0.681733 0.0425553 0.568863 -4.74805e-07 0.451489 -4.85066e-07C0.334116 -4.95327e-07 0.221247 0.0425553 0.136291 0.11884L0.130809 0.124004C0.0894813 0.160985 0.0565729 0.2055 0.0340853 0.254839C0.0115976 0.304178 9.22437e-07 0.35731 9.17743e-07 0.411004C9.13049e-07 0.464698 0.0115976 0.517831 0.0340852 0.56717C0.0565729 0.616509 0.0894813 0.661023 0.130809 0.698005L4.92549 5.00086L0.130808 9.30199C0.0894805 9.33898 0.0565721 9.38349 0.0340844 9.43283C0.0115968 9.48217 1.20072e-07 9.5353 1.15378e-07 9.58899C1.10684e-07 9.64269 0.0115968 9.69582 0.0340844 9.74516C0.0565721 9.7945 0.0894805 9.83901 0.130808 9.876L0.13629 9.88116C0.221246 9.95744 0.334115 10 0.451489 10C0.568862 10 0.681732 9.95744 0.766688 9.88116L5.8583 5.31153C5.90308 5.27134 5.93872 5.22301 5.96308 5.16946C5.98744 5.11591 6 5.05826 6 5C6 4.94174 5.98744 4.88409 5.96308 4.83054C5.93872 4.77699 5.90308 4.72866 5.8583 4.68847Z" fill="black"/>
</svg>
