<svg width="96" height="96" viewBox="0 0 96 96" fill="none" xmlns="http://www.w3.org/2000/svg">
<path d="M21.143 56.6522L42.0635 56.8506C42.3139 56.8554 42.5589 56.9236 42.7758 57.0488C42.9926 57.174 43.1742 57.3521 43.3035 57.5665L53.9356 75.585C54.099 75.8576 54.3468 76.0695 54.6414 76.1887C54.936 76.3079 55.2615 76.3279 55.5685 76.2457C55.8755 76.1634 56.1473 75.9834 56.3429 75.7328C56.5384 75.4823 56.647 75.1748 56.6523 74.857L56.8507 53.9366C56.8554 53.6862 56.9236 53.4412 57.0488 53.2243C57.174 53.0074 57.3522 52.8259 57.5666 52.6965L75.585 42.0645C75.8576 41.9011 76.0696 41.6533 76.1888 41.3587C76.308 41.064 76.328 40.7386 76.2457 40.4316C76.1635 40.1246 75.9834 39.8528 75.7329 39.6572C75.4823 39.4617 75.1749 39.3531 74.8571 39.3478L53.9367 39.1494C53.6863 39.1446 53.4412 39.0764 53.2244 38.9512C53.0075 38.826 52.8259 38.6479 52.6966 38.4335L42.0646 20.415C41.9011 20.1424 41.6534 19.9305 41.3588 19.8113C41.0641 19.6921 40.7387 19.6721 40.4317 19.7544C40.1247 19.8366 39.8528 20.0166 39.6573 20.2672C39.4617 20.5177 39.3531 20.8252 39.3479 21.143L39.1495 42.0634C39.1447 42.3138 39.0765 42.5588 38.9513 42.7757C38.8261 42.9926 38.648 43.1741 38.4336 43.3035L20.4151 53.9355C20.1425 54.0989 19.9306 54.3467 19.8114 54.6413C19.6922 54.936 19.6722 55.2614 19.7544 55.5684C19.8367 55.8754 20.0167 56.1472 20.2673 56.3428C20.5178 56.5383 20.8253 56.647 21.143 56.6522Z" fill="url(#paint0_linear_506_4153)" stroke="#FCD34D" stroke-width="0.125" stroke-linecap="round" stroke-linejoin="round"/>
<defs>
<linearGradient id="paint0_linear_506_4153" x1="29.9449" y1="29.9518" x2="66.0553" y2="66.0482" gradientUnits="userSpaceOnUse">
<stop stop-color="#FCD966"/>
<stop offset="0.5" stop-color="#FCD966"/>
<stop offset="1" stop-color="#FCCD34"/>
</linearGradient>
</defs>
</svg>
