<svg width="94" height="92" viewBox="0 0 94 92" fill="none" xmlns="http://www.w3.org/2000/svg">
<path fill-rule="evenodd" clip-rule="evenodd" d="M7.4248 44.5597C7.4248 66.2101 23.1508 80.9614 40.815 84.0127C41.2955 84.0958 41.7549 84.2726 42.167 84.5329C42.579 84.7933 42.9357 85.1321 43.2166 85.53C43.4974 85.9279 43.6971 86.3772 43.804 86.8521C43.9109 87.327 43.9231 87.8183 43.8398 88.298C43.7565 88.7776 43.5794 89.2361 43.3186 89.6474C43.0578 90.0587 42.7184 90.4147 42.3197 90.6951C41.9211 90.9755 41.471 91.1747 40.9952 91.2814C40.5194 91.3882 40.0272 91.4003 39.5467 91.3172C18.8043 87.7325 0 70.2785 0 44.5597C0 33.6278 4.98074 25.036 10.7952 18.5067C14.9636 13.8267 19.7306 10.0215 23.5641 7.11249H11.9068C10.9619 7.11249 10.0557 6.73781 9.3875 6.07089C8.71936 5.40396 8.344 4.49942 8.344 3.55624C8.344 2.61307 8.71936 1.70852 9.3875 1.0416C10.0557 0.374675 10.9619 0 11.9068 0H33.2834C34.2283 0 35.1345 0.374675 35.8026 1.0416C36.4708 1.70852 36.8461 2.61307 36.8461 3.55624V24.8937C36.8461 25.8369 36.4708 26.7414 35.8026 27.4083C35.1345 28.0753 34.2283 28.4499 33.2834 28.4499C32.3384 28.4499 31.4322 28.0753 30.7641 27.4083C30.0959 26.7414 29.7206 25.8369 29.7206 24.8937V11.7641L29.7135 11.7783C25.6377 14.8366 20.664 18.5849 16.3531 23.4285C11.2583 29.147 7.4248 36.0674 7.4248 44.5597ZM86.5752 47.4403C86.5752 26.0175 71.184 11.3586 53.7479 8.0869C53.2619 8.00459 52.7972 7.82651 52.3809 7.56304C51.9646 7.29957 51.6051 6.95599 51.3232 6.55234C51.0414 6.14869 50.8429 5.69306 50.7393 5.21203C50.6358 4.731 50.6292 4.23419 50.7201 3.75061C50.8109 3.26702 50.9973 2.80633 51.2684 2.39542C51.5395 1.98451 51.8899 1.6316 52.2991 1.35728C52.7083 1.08297 53.1681 0.892742 53.6518 0.797698C54.1354 0.702654 54.6331 0.704698 55.116 0.803711C75.5947 4.64445 94 21.9989 94 47.4403C94 58.3722 89.0192 66.9569 83.2048 73.4933C79.0364 78.1733 74.2694 81.9785 70.4359 84.8875H82.0932C83.0381 84.8875 83.9443 85.2622 84.6125 85.9291C85.2806 86.596 85.656 87.5006 85.656 88.4438C85.656 89.3869 85.2806 90.2915 84.6125 90.9584C83.9443 91.6253 83.0381 92 82.0932 92H60.7166C59.7717 92 58.8655 91.6253 58.1974 90.9584C57.5292 90.2915 57.1539 89.3869 57.1539 88.4438V67.1063C57.1539 66.1631 57.5292 65.2586 58.1974 64.5917C58.8655 63.9247 59.7717 63.5501 60.7166 63.5501C61.6615 63.5501 62.5678 63.9247 63.2359 64.5917C63.904 65.2586 64.2794 66.1631 64.2794 67.1063V80.2288H64.2937C68.3623 77.1562 73.3431 73.4151 77.6469 68.5644C82.7417 62.853 86.5752 55.9397 86.5752 47.4403Z" fill="#1E1E1E"/>
</svg>
